<svg width="84" height="24" viewBox="0 0 84 24" fill="none" xmlns="http://www.w3.org/2000/svg">
<path fill-rule="evenodd" clip-rule="evenodd" d="M20.6424 0H15.4424V23.3684H20.6424V0ZM5.35758 10.5789C5.42806 10.1217 5.80457 9.4246 6.93333 9.4737C8.44016 9.4246 8.50291 10.3752 8.50909 10.7368H13.7091C13.2092 6.1293 9.25578 5.2105 6.93333 5.2105C3.35724 5.2105 0.219632 7.5236 0.157576 11.2105C0.219632 13.5438 2.1022 15.033 4.41212 15.7895C5.06339 16.0423 5.63603 16.2511 6.13561 16.4333C8.14822 17.1671 8.97519 17.4687 8.98182 18.4737C8.97355 19.2788 8.03227 19.7858 7.09091 19.7368C6.93411 19.7858 5.39668 19.7858 5.2 18.1579H0C0.470641 22.7959 4.4554 24 7.09091 24C10.9501 24 14.1818 21.7186 14.1818 17.8421C14.1818 14.0508 11.0442 13.1636 8.03636 12.3158C6.71447 11.9278 5.42806 11.3891 5.35758 10.5789ZM23.0061 0H28.2061V3.9474H23.0061V0ZM28.2061 5.8421H23.0061V23.3684H28.2061V5.8421ZM43.8061 23.3684H48.8485V0H43.6485V7.4211C43.0401 6.7758 41.5565 5.256 38.4485 5.2105C34.0119 5.256 29.7818 8.6439 29.7818 14.5263C29.7818 19.8839 33.2543 24 38.6061 24C42.0931 24 43.3558 22.2586 43.8061 21.4737V23.3684ZM34.9818 14.5263C34.9818 17.1601 36.8962 18.9474 39.3939 18.9474C40.5993 18.9474 41.7607 18.4455 42.5454 17.6842C43.3925 16.8151 43.8632 15.6864 43.806 14.3684C43.8005 13.1467 43.2983 12.0806 42.5454 11.3684C41.7291 10.5442 40.6307 10.1053 39.3939 10.1053C36.3939 10.1053 34.9818 12.4569 34.9818 14.5263ZM55.4667 16.4211C55.6943 18.3186 57.451 19.5566 59.5636 19.5789C61.1529 19.5566 62.0316 18.8265 62.7151 17.8421H67.9151C67.1454 19.8739 65.9219 21.3974 64.4485 22.4211C63.004 23.4604 61.2786 24 59.5636 24C54.5019 24 50.2667 19.9056 50.2667 14.6842C50.2667 9.7491 54.0941 5.2105 59.4061 5.2105C62.0629 5.2105 64.3532 6.2579 66.0242 8.0526C68.1806 10.3839 68.8394 13.2087 68.3879 16.4211H55.4667ZM59.4061 9.6316C62.1383 9.6316 63.2184 11.634 63.3455 12.4737H55.4667C55.5936 11.634 56.6738 9.6316 59.4061 9.6316ZM75.9515 9.4737C77.4583 9.4246 77.521 10.3752 77.5273 10.7368H82.7273C82.2275 6.1293 78.2741 5.2105 75.9515 5.2105C72.3753 5.2105 69.2378 7.5236 69.1758 11.2105C69.2378 13.5438 71.1204 15.033 73.4303 15.7895C74.0816 16.0423 74.6542 16.2511 75.1538 16.4333C77.1664 17.1671 77.9933 17.4687 78 18.4737C77.9917 19.2788 77.0504 19.7858 76.1091 19.7368C75.9522 19.7858 74.4148 19.7858 74.2182 18.1579H69.0182C69.4888 22.7959 73.4735 24 76.1091 24C79.9684 24 83.2 21.7186 83.2 17.8421C83.2 14.0508 80.0625 13.1635 77.0546 12.3158C75.7327 11.9278 74.4463 11.3891 74.3758 10.5789C74.4463 10.1217 74.8228 9.4246 75.9515 9.4737Z" fill="#1B1B1B"/>
</svg>
